inDegrees=no
num_controls=7
num_derivatives=13
num_iterations=156
num_multipliers=7
num_parameters=0
num_slacks=7
num_states=26
objective=5.836898
objective_accelerations=0.672679
objective_balance=0.019921
objective_effort=0.484950
objective_height=4.542904
objective_ligament=0.116444
solver_duration=1412.332310
status=Solve_Succeeded
success=true
DataType=double
version=3
OpenSimVersion=4.4-2022-07-23-0e9fedc
endheader
time	/jointset/ground_pelvis/pelvis_tilt/value	/jointset/ground_pelvis/pelvis_tx/value	/jointset/ground_pelvis/pelvis_ty/value	/jointset/hip_r/hip_flexion_r/value	/jointset/hip_r/hip_adduction_r/value	/jointset/hip_r/hip_rotation_r/value	/jointset/back/lumbar_extension/value	/jointset/patellofemoral_r/patellar_flexion_r/value	/jointset/knee_r/knee_flexion_r/value	/jointset/knee_r/knee_adduction_r/value	/jointset/knee_r/knee_rotation_r/value	/jointset/ankle_r/ankle_angle_r/value	/jointset/subtalar_r/subtalar_angle_r/value	/jointset/ground_pelvis/pelvis_tilt/speed	/jointset/ground_pelvis/pelvis_tx/speed	/jointset/ground_pelvis/pelvis_ty/speed	/jointset/hip_r/hip_flexion_r/speed	/jointset/hip_r/hip_adduction_r/speed	/jointset/hip_r/hip_rotation_r/speed	/jointset/back/lumbar_extension/speed	/jointset/patellofemoral_r/patellar_flexion_r/speed	/jointset/knee_r/knee_flexion_r/speed	/jointset/knee_r/knee_adduction_r/speed	/jointset/knee_r/knee_rotation_r/speed	/jointset/ankle_r/ankle_angle_r/speed	/jointset/subtalar_r/subtalar_angle_r/speed	/forceset/tau_hip_flexion_r	/forceset/tau_hip_adduction_r	/forceset/tau_hip_rotation_r	/forceset/tau_knee_flexion_r	/forceset/tau_ankle_angle_r	/forceset/tau_subtalar_angle_r	/forceset/tau_lumbar_extension	lambda_cid13_p0	lambda_cid14_p0	lambda_cid14_p1	lambda_cid14_p2	lambda_cid14_p3	lambda_cid14_p4	lambda_cid14_p5	/jointset/ground_pelvis/pelvis_tilt/accel	/jointset/ground_pelvis/pelvis_tx/accel	/jointset/ground_pelvis/pelvis_ty/accel	/jointset/hip_r/hip_flexion_r/accel	/jointset/hip_r/hip_adduction_r/accel	/jointset/hip_r/hip_rotation_r/accel	/jointset/back/lumbar_extension/accel	/jointset/patellofemoral_r/patellar_flexion_r/accel	/jointset/knee_r/knee_flexion_r/accel	/jointset/knee_r/knee_adduction_r/accel	/jointset/knee_r/knee_rotation_r/accel	/jointset/ankle_r/ankle_angle_r/accel	/jointset/subtalar_r/subtalar_angle_r/accel	gamma_cid13_p0	gamma_cid14_p0	gamma_cid14_p1	gamma_cid14_p2	gamma_cid14_p3	gamma_cid14_p4	gamma_cid14_p5
1	-0.2605356316737832	-0.01886150171323152	0.6090799522085808	1.518248872513438	-0.2405736203994427	-0.07119537181257708	-0.7853962563578489	1.573801491689775	1.57380149168983	-0.1745329215589544	0.174532616656035	0.4362388962807943	0.1711062608974665	0.06832239237738642	0.004650733592649018	0.01465905803283074	-0.09688358587649036	-0.0010980955603113	-0.003234630282821364	-2.80197266879818e-05	-0.01493350085158776	-0.01493350085158806	0.001963661350608218	-0.0002072673363519949	0.01380243897198378	0.005007006421343049	-0.3532859989543612	0.0174963754701279	0.007126343343761631	-0.4696523467376396	-0.02131119670867464	0.010363694024695	0.3696316566805885	-0.04028037400124082	-58.47136105073602	-8.492825733544146	4.923784417673573	8.630418736744121	-777.3665335385615	75.05330903304431	1.281875360732965	0.1264291137003642	1.961323763364913	-5.777704040554979	0.2616034067067535	-0.9870534844852321	-0.0223095421508718	-5.284508791871312	-5.284508791871281	0.3400532457285415	-0.03432396316650546	-0.9156606403933544	0.05371394578371871	1.333096171004588e-09	1.840711737855785e-09	6.009971882923255e-09	9.497526567145807e-09	-1.699961290984534e-09	-4.905330696617597e-09	1.260461346492001e-08
1.01	-0.2597888232066851	-0.01880861858795719	0.6093244902017273	1.51699180565423	-0.2405714767720656	-0.07127410565904935	-0.7853969029914352	1.573388368503674	1.573388368503662	-0.1744934174604164	0.1745283897577255	0.436331197982338	0.1711590566291082	0.08105134865082933	0.005934660791147135	0.03424842575563592	-0.1545478146881905	0.00152122377644067	-0.01244074936950012	-9.827136521233064e-05	-0.06768412362844776	-0.0676841236284435	0.00601655376560928	-0.0006331392666130065	0.004664032866984348	0.005542589182983871	-0.3528114065896307	0.01742434625645995	0.007219452353132539	-0.470022907331391	-0.02075105567471283	0.01033988964978645	0.3694563985065472	-0.0402805541634561	-58.28526569347054	-8.478473256160251	4.930512374593319	8.419136549949148	-777.3046723496955	75.12514911937387	1.270213906966738	0.13068939135499	1.9577238557786	-5.763485785177458	0.2612598665679746	-0.8766821004405151	0.001072366292592206	-5.269287790935744	-5.269287790935097	0.4498169494462639	-0.04596628153161734	-0.9120109576257136	0.05205438364977296	3.386011077529283e-09	4.617293183597706e-09	2.409512318349694e-08	2.33601615831166e-08	-2.644317565085514e-09	-1.09132131259626e-08	4.481298350654891e-08
1.02	-0.25891436354759	-0.01874263321701189	0.6097649179879102	1.51515755581016	-0.2405433072174382	-0.07144275889235806	-0.7853981610726343	1.572447949335736	1.572447949335661	-0.1744110024956719	0.1745200546451099	0.436332299550109	0.1712169229768252	0.09385263077694672	0.007271182726844145	0.05383701664005282	-0.2123201828478899	0.004107089889552292	-0.02121850764344457	-0.000150309363881877	-0.1203926972190076	-0.120392697218999	0.01054583458302785	-0.001028910139882667	-0.004437587720919114	0.006021129636428116	-0.3523368142249213	0.01735231704271128	0.007312561362404391	-0.4703934679251509	-0.02019091464076944	0.01031608527471914	0.3692811403324848	-0.04028860731205218	-58.1066676607564	-8.463235160947024	4.934587769278116	8.213108272150308	-777.3576573119201	75.21951026896561	1.296340531267904	0.1369480611400935	1.96116839568724	-5.799331910154766	0.2549127619784824	-0.9013813219386191	-0.01866681417785422	-5.276098954611284	-5.276098954611299	0.4353309262120863	-0.02830375176769331	-0.9083035369743159	0.04230548414395149	9.594619444926181e-09	1.314501144272808e-08	5.880937501929241e-08	6.580914710863429e-08	-6.200032039235282e-09	-1.939380248533255e-08	1.272989508880142e-07
1.03	-0.2579120551276729	-0.0186629897299092	0.610401181352799	1.512745578400266	-0.2404894497781591	-0.07169706866781971	-0.7853980898449933	1.570980477444434	1.570980477444393	-0.1742808630553049	0.174507995398223	0.4362423658266514	0.1712791764942058	0.1065689452861927	0.008669483062811645	0.07341111463573512	-0.2700409069293089	0.006659998066376656	-0.02958118929733929	0.0003431904203015674	-0.1731132526317707	-0.1731132526317627	0.01555717496970741	-0.00137344575409393	-0.01356247257412462	0.006412275573935978	-0.3531233926116921	0.01753567565697973	0.007412201874322021	-0.469957802997864	-0.0210012369724618	0.01035244991078805	0.3703250925696046	-0.04030869022408629	-58.40331330560474	-8.48543965112818	4.92220185874056	8.29364897396322	-777.9929291777207	75.19638986985102	1.253265541396734	0.1430642969301915	1.954843614700307	-5.753279433547525	0.254833908006104	-0.7943661019846308	0.1101536830404733	-5.271772780197225	-5.271772780197305	0.5453015866129988	-0.03607422633741166	-0.9165781828138611	0.03495207897095309	1.584563284763813e-08	2.173141477138286e-08	9.369331155442698e-08	1.085498300883312e-07	-9.782393025630462e-09	-2.789962354807011e-08	2.102979549770292e-07
